<?xml version="1.0" encoding="UTF-8"?>
<svg xmlns="http://www.w3.org/2000/svg" xmlns:xlink="http://www.w3.org/1999/xlink" viewBox="0 0 50 50" width="50px" height="50px">
<g id="surface9594883">
<path style=" stroke:none;fill-rule:nonzero;fill:rgb(100%,100%,100%);fill-opacity:1;" d="M 43.753906 6.402344 C 42.535156 6.347656 41.292969 6.714844 40.273438 7.46875 L 37.527344 9.496094 L 25 18.753906 L 12.589844 9.582031 C 12.417969 9.414062 12.191406 9.3125 11.949219 9.300781 L 12.199219 9.300781 L 9.734375 7.476562 C 8.710938 6.71875 7.46875 6.351562 6.246094 6.40625 C 5.027344 6.460938 3.835938 6.929688 2.910156 7.847656 C 1.730469 9.007812 1 10.628906 1 12.410156 L 1 15.84375 C 0.984375 15.941406 0.984375 16.039062 1 16.136719 L 1 39.5 C 1 41.421875 2.578125 43 4.5 43 L 12 43 C 12.550781 43 13 42.550781 13 42 L 13 25.371094 L 24.40625 33.804688 C 24.757812 34.066406 25.242188 34.066406 25.59375 33.804688 L 37 25.371094 L 37 42 C 37 42.550781 37.449219 43 38 43 L 45.5 43 C 47.421875 43 49 41.421875 49 39.5 L 49 16.121094 C 49.011719 16.03125 49.011719 15.945312 49 15.859375 L 49 12.410156 C 49 10.652344 48.289062 9.035156 47.128906 7.871094 C 47.09375 7.839844 47.085938 7.832031 47.097656 7.84375 C 47.097656 7.839844 47.09375 7.839844 47.09375 7.835938 C 46.164062 6.925781 44.972656 6.457031 43.753906 6.402344 Z M 43.644531 8.398438 C 44.402344 8.429688 45.132812 8.71875 45.691406 9.261719 C 45.707031 9.28125 45.722656 9.296875 45.714844 9.289062 C 46.507812 10.085938 47 11.1875 47 12.410156 L 47 15.496094 L 39 21.410156 L 39 11 C 39 10.964844 39 10.933594 38.996094 10.898438 L 41.457031 9.078125 C 41.460938 9.078125 41.460938 9.078125 41.460938 9.078125 C 42.109375 8.597656 42.886719 8.371094 43.644531 8.398438 Z M 6.355469 8.40625 C 7.113281 8.375 7.894531 8.605469 8.542969 9.085938 L 11.003906 10.902344 C 11 10.933594 11 10.96875 11 11 L 11 21.410156 L 3 15.496094 L 3 12.410156 C 3 11.175781 3.5 10.070312 4.3125 9.269531 C 4.867188 8.722656 5.601562 8.4375 6.355469 8.40625 Z M 37 12.371094 L 37 22.886719 L 25 31.753906 L 13 22.886719 L 13 12.371094 L 24.40625 20.804688 C 24.757812 21.066406 25.242188 21.066406 25.59375 20.804688 Z M 3 17.980469 L 11 23.894531 L 11 41 L 4.5 41 C 3.660156 41 3 40.339844 3 39.5 Z M 47 17.980469 L 47 39.5 C 47 40.339844 46.339844 41 45.5 41 L 39 41 L 39 23.894531 Z M 47 17.980469 "/>
</g>
</svg>
